<?xml version="1.0" encoding="UTF-8"?>
<svg id="Capa_2" data-name="Capa 2" xmlns="http://www.w3.org/2000/svg" viewBox="0 0 311.8 319.63">
  <defs>
    <style>
      .cls-1 {
        fill: #fff;
      }
    </style>
  </defs>
  <g id="Capa_1-2" data-name="Capa 1">
    <path class="cls-1" d="M153.07,0c-2.9,0-5.25,2.37-5.25,5.28s2.35,5.28,5.25,5.28c81.74,0,148.24,66.95,148.24,149.25s-66.5,149.25-148.24,149.25c-21.3,0-41.86-4.71-60.56-13.21h60.56c74.5,0,135.12-61.03,135.12-136.04,0-4.82-.25-9.68-.75-14.44-.31-2.9-2.86-4.99-5.77-4.7-2.88,.31-4.97,2.91-4.67,5.81,.46,4.4,.7,8.88,.7,13.33,0,69.19-55.91,125.48-124.62,125.48H73.19c-7.25-4.69-14.1-9.98-20.45-15.85h100.33c60.04,0,108.88-49.18,108.88-109.63,0-4.65-.29-9.33-.87-13.92-.36-2.89-3-4.93-5.86-4.58-2.87,.37-4.91,3.01-4.55,5.9,.52,4.15,.79,8.38,.79,12.59,0,54.62-44.14,99.06-98.39,99.06H42.39c-4.43-4.99-8.56-10.27-12.31-15.85h122.98c45.57,0,82.64-37.33,82.64-83.21,0-5.21-.48-10.43-1.43-15.51-.54-2.87-3.27-4.74-6.13-4.22-2.85,.54-4.72,3.3-4.19,6.17,.83,4.44,1.25,9,1.25,13.55,0,40.05-32.37,72.64-72.15,72.64H23.59c-2.84-5.1-5.39-10.39-7.63-15.85H153.07c31.1,0,56.41-25.48,56.41-56.79,0-5.82-.25-13.63-4.3-18.27-2.81-3.22-6.27-5.8-9.28-8.83-3.28-3.3-6.55-6.6-9.83-9.9-5.58-5.62-11.17-11.24-16.75-16.86-5.24-5.27-10.47-10.55-15.71-15.82-3.33-3.36-6.67-6.71-10-10.07-.47-.47-.93-.94-1.4-1.41l-8.98,9.04c-6.18-5.11-13.85-7.88-21.95-7.88-9.26,0-17.97,3.63-24.52,10.23-6.55,6.59-10.16,15.36-10.16,24.69,0,8.16,2.76,15.89,7.83,22.11l-3.71,3.73-12.31-12.85L0,202.37l.85,2.88c.78,2.66,1.66,5.28,2.57,7.88,.04,.11,.07,.23,.12,.34,3.26,9.19,7.32,17.97,12.1,26.25,.17,.42,.39,.81,.66,1.16,5.48,9.3,11.87,17.97,19.02,25.9,.42,.74,.99,1.36,1.7,1.82,29.45,31.66,71.25,51.04,116.05,51.04,87.52,0,158.73-71.69,158.73-159.82S240.59,0,153.07,0Zm-58.9,97.51c8.6-8.65,22.1-9.39,31.56-2.26l-33.81,34.04c-7.08-9.53-6.35-23.12,2.25-31.78Zm48.04-3.91c2.2,2.21,4.4,4.43,6.6,6.64,5.1,5.14,10.21,10.28,15.31,15.42,5.77,5.81,11.55,11.63,17.32,17.44,4.21,4.24,8.41,8.47,12.62,12.71,2.29,2.3,4.19,3.81,4.62,7.26,1.39,10.98-1.04,22.45-7.03,31.78-5.54,8.62-13.92,15.3-23.61,18.67-4.81,1.67-9.89,2.52-14.98,2.52h-9.63l-55.44-57.87,54.2-54.57Zm-73.62,49.52l60.28,62.93H12.1c-.1-.32-.22-.62-.32-.94l56.8-61.98Z"/>
  </g>
</svg>